<svg xmlns="http://www.w3.org/2000/svg" width="24" height="24" viewBox="0 0 24 24" fill="none">
    <path d="M8 15.5V6C8 5.11667 8.22917 4.4125 8.6875 3.8875C9.14583 3.3625 9.75 2.9625 10.5 2.6875C11.25 2.4125 12.1042 2.22917 13.0625 2.1375C14.0208 2.04583 15 2 16 2C17.1 2 18.1375 2.04583 19.1125 2.1375C20.0875 2.22917 20.9375 2.4125 21.6625 2.6875C22.3875 2.9625 22.9583 3.3625 23.375 3.8875C23.7917 4.4125 24 5.11667 24 6V15.5C24 16.4833 23.6625 17.3125 22.9875 17.9875C22.3125 18.6625 21.4833 19 20.5 19L22 20.5V21H20L18 19H14L12 21H10V20.5L11.5 19C10.5167 19 9.6875 18.6625 9.0125 17.9875C8.3375 17.3125 8 16.4833 8 15.5ZM16 4C14.2333 4 12.9417 4.10417 12.125 4.3125C11.3083 4.52083 10.75 4.75 10.45 5H21.65C21.4 4.71667 20.8625 4.47917 20.0375 4.2875C19.2125 4.09583 17.8667 4 16 4ZM10 10H15V7H10V10ZM20.5 12H10H22H20.5ZM17 10H22V7H17V10ZM12.5 16C12.9333 16 13.2917 15.8583 13.575 15.575C13.8583 15.2917 14 14.9333 14 14.5C14 14.0667 13.8583 13.7083 13.575 13.425C13.2917 13.1417 12.9333 13 12.5 13C12.0667 13 11.7083 13.1417 11.425 13.425C11.1417 13.7083 11 14.0667 11 14.5C11 14.9333 11.1417 15.2917 11.425 15.575C11.7083 15.8583 12.0667 16 12.5 16ZM19.5 16C19.9333 16 20.2917 15.8583 20.575 15.575C20.8583 15.2917 21 14.9333 21 14.5C21 14.0667 20.8583 13.7083 20.575 13.425C20.2917 13.1417 19.9333 13 19.5 13C19.0667 13 18.7083 13.1417 18.425 13.425C18.1417 13.7083 18 14.0667 18 14.5C18 14.9333 18.1417 15.2917 18.425 15.575C18.7083 15.8583 19.0667 16 19.5 16ZM11.5 17H20.5C20.9333 17 21.2917 16.8583 21.575 16.575C21.8583 16.2917 22 15.9333 22 15.5V12H10V15.5C10 15.9333 10.1417 16.2917 10.425 16.575C10.7083 16.8583 11.0667 17 11.5 17ZM16 5H21.65H10.45H16Z" fill="currentColor"/>
</svg>